<svg width="80" height="80" viewBox="0 0 80 80" fill="none" xmlns="http://www.w3.org/2000/svg">
<path d="M13.7773 27.9993C18.1954 27.9993 21.777 24.4177 21.777 19.9996C21.777 15.5816 18.1954 12 13.7773 12C9.35927 12 5.7777 15.5816 5.7777 19.9996C5.7777 24.4177 9.35927 27.9993 13.7773 27.9993Z" stroke="#FFB100" stroke-width="3.5" stroke-linecap="round" stroke-linejoin="round"/>
<path d="M13.7781 28C16.3715 28 18.8586 29.0302 20.6923 30.864C22.5261 32.6977 23.5563 35.1848 23.5563 37.7781V67.7162H4V37.7781C4 35.1848 5.03019 32.6977 6.86395 30.864C8.69771 29.0302 11.1848 28 13.7781 28V28Z" stroke="#FFB100" stroke-width="3.5" stroke-linecap="round" stroke-linejoin="round"/>
<path d="M66.221 27.9993C70.6391 27.9993 74.2206 24.4177 74.2206 19.9996C74.2206 15.5816 70.6391 12 66.221 12C61.8029 12 58.2213 15.5816 58.2213 19.9996C58.2213 24.4177 61.8029 27.9993 66.221 27.9993Z" stroke="#FFB100" stroke-width="3.5" stroke-linecap="round" stroke-linejoin="round"/>
<path d="M66.2218 28C68.8151 28 71.3022 29.0302 73.136 30.864C74.9697 32.6977 75.9999 35.1848 75.9999 37.7781V67.7162H56.4436V37.7781C56.4436 35.1848 57.4738 32.6977 59.3076 30.864C61.1413 29.0302 63.6285 28 66.2218 28V28Z" stroke="#FFB100" stroke-width="3.5" stroke-linecap="round" stroke-linejoin="round"/>
<path d="M43.8609 41.8794L48.889 46.9075L43.8609 51.9355" stroke="#FFB100" stroke-width="3.5" stroke-linecap="round" stroke-linejoin="round"/>
<path d="M48.8888 46.9075H31.111" stroke="#FFB100" stroke-width="3.5" stroke-linecap="round" stroke-linejoin="round"/>
<path d="M34.3607 27.9619L29.3326 32.99L34.3607 38.0181" stroke="#FFB100" stroke-width="3.5" stroke-linecap="round" stroke-linejoin="round"/>
<path d="M29.3326 32.9907H47.1104" stroke="#FFB100" stroke-width="3.5" stroke-linecap="round" stroke-linejoin="round"/>
</svg>
