<svg width="80" height="80" viewBox="0 0 80 80" fill="none" xmlns="http://www.w3.org/2000/svg">
<path d="M47.8694 69.2545C50.5285 70.7438 53.5096 71.5648 56.5563 71.6468C59.603 71.7289 62.6239 71.0696 65.3594 69.7256L73.8043 71.9872C73.916 72.0175 74.0338 72.0177 74.1456 71.9879C74.2575 71.9581 74.3595 71.8993 74.4414 71.8174C74.5233 71.7356 74.5821 71.6336 74.6119 71.5217C74.6417 71.4098 74.6415 71.2921 74.6112 71.1803L72.5732 63.5723C75.444 59.4838 76.5763 54.4238 75.7219 49.5017C74.8675 44.5796 72.096 40.1972 68.0153 37.3154C67.5081 36.9781 66.964 36.6707 66.964 36.6707" stroke="#FFB100" stroke-width="3.5" stroke-miterlimit="10"/>
<path d="M35.6989 8.00001C29.9007 7.99531 24.2125 9.58229 19.2542 12.588C14.296 15.5937 10.2579 19.9027 7.5801 25.0455C4.90233 30.1883 3.68762 35.9675 4.06838 41.7531C4.44913 47.5387 6.41073 53.1089 9.73938 57.8564L6.32345 70.6033C6.27316 70.7905 6.27305 70.9876 6.32311 71.1749C6.37317 71.3622 6.47166 71.533 6.60865 71.6701C6.74565 71.8073 6.91635 71.906 7.10357 71.9563C7.29079 72.0065 7.48794 72.0066 7.67522 71.9566L21.8215 68.1656C26.1065 70.2556 30.8079 71.3517 35.5753 71.3722C40.3428 71.3928 45.0534 70.3373 49.3563 68.2843C53.6592 66.2314 57.4433 63.234 60.4268 59.5154C63.4103 55.7968 65.5162 51.453 66.5877 46.8074C67.6591 42.1619 67.6685 37.3344 66.615 32.6848C65.5616 28.0351 63.4725 23.6831 60.5034 19.953C57.5344 16.2229 53.7619 13.2108 49.467 11.1412C45.1721 9.07166 40.4656 7.99792 35.6981 8.00001H35.6989Z" stroke="#FFB100" stroke-width="3.5" stroke-miterlimit="10"/>
<path d="M22.5877 35.6862C23.6488 35.6862 24.5089 34.826 24.5089 33.765C24.5089 32.7039 23.6488 31.8438 22.5877 31.8438C21.5267 31.8438 20.6665 32.7039 20.6665 33.765C20.6665 34.826 21.5267 35.6862 22.5877 35.6862Z" fill="#FFB100" stroke="#FFB100" stroke-width="1.5" stroke-miterlimit="10" stroke-linecap="round"/>
<path d="M48.7162 35.6862C49.7773 35.6862 50.6374 34.826 50.6374 33.765C50.6374 32.7039 49.7773 31.8438 48.7162 31.8438C47.6551 31.8438 46.795 32.7039 46.795 33.765C46.795 34.826 47.6551 35.6862 48.7162 35.6862Z" fill="#FFB100" stroke="#FFB100" stroke-width="1.5" stroke-miterlimit="10" stroke-linecap="round"/>
<path d="M36.024 36.1436C36.024 36.1436 30.8644 41.3032 36.024 44.7429" stroke="#FFB100" stroke-width="4" stroke-miterlimit="10" stroke-linecap="round"/>
<path d="M48.1362 48.457C46.85 50.637 45.02 52.4459 42.8252 53.7067C40.6305 54.9675 38.146 55.6371 35.6149 55.6499C33.0838 55.6628 30.5927 55.0185 28.3852 53.78C26.1777 52.5416 24.3295 50.7514 23.0212 48.5846" stroke="#FFB100" stroke-width="4" stroke-miterlimit="10" stroke-linecap="round"/>
</svg>
