<svg width="80" height="80" viewBox="0 0 80 80" fill="none" xmlns="http://www.w3.org/2000/svg">
<path d="M57.179 6.00001C53.7366 5.9974 50.3596 6.9397 47.4159 8.72421C44.4723 10.5087 42.0749 13.067 40.485 16.1202C38.8952 19.1734 38.1739 22.6044 38.3997 26.0393C38.6256 29.4743 39.7899 32.7813 41.7658 35.6001L39.7383 43.1684C39.7084 43.2795 39.7083 43.3966 39.738 43.5078C39.7677 43.619 39.8262 43.7204 39.9076 43.8018C39.989 43.8832 40.0904 43.9417 40.2016 43.9715C40.3128 44.0012 40.4299 44.0011 40.5411 43.9711L48.9412 41.7192C51.4852 42.9601 54.2764 43.6109 57.1068 43.6232C59.9372 43.6354 62.734 43.0088 65.2886 41.79C67.8432 40.5712 70.0899 38.7917 71.8612 36.5839C73.6325 34.3762 74.8827 31.7972 75.5188 29.0392C76.1549 26.2811 76.1604 23.415 75.5349 20.6545C74.9094 17.8941 73.669 15.3103 71.9062 13.0958C70.1434 10.8813 67.9036 9.09312 65.3537 7.86453C62.8037 6.63594 60.0094 5.9986 57.179 6.00001V6.00001Z" stroke="#FFB100" stroke-width="3.5" stroke-miterlimit="10"/>
<path d="M75.0593 65.8801H4.79735C4.35699 65.8801 4 66.2371 4 66.6775V71.9265C4 72.3669 4.35699 72.7239 4.79735 72.7239H75.0593C75.4996 72.7239 75.8566 72.3669 75.8566 71.9265V66.6775C75.8566 66.2371 75.4996 65.8801 75.0593 65.8801Z" stroke="#FFB100" stroke-width="3.5" stroke-miterlimit="10"/>
<path d="M10.2187 65.8803V25.524C10.2189 24.6167 10.5794 23.7465 11.221 23.1049C11.8626 22.4633 12.7328 22.1027 13.6401 22.1025H38.5189" stroke="#FFB100" stroke-width="3.5" stroke-miterlimit="10"/>
<path d="M48.625 21.3979H65.7339" stroke="#FFB100" stroke-width="3.5" stroke-miterlimit="10" stroke-linecap="round"/>
<path d="M52.0471 29.9519H62.3123" stroke="#FFB100" stroke-width="3.5" stroke-miterlimit="10" stroke-linecap="round"/>
<path d="M69.013 39.8787V65.8803" stroke="#FFB100" stroke-width="3.5" stroke-miterlimit="10" stroke-linecap="round"/>
<path d="M27.0971 48.772C30.4042 48.772 33.0852 46.091 33.0852 42.7838C33.0852 39.4767 30.4042 36.7957 27.0971 36.7957C23.7899 36.7957 21.1089 39.4767 21.1089 42.7838C21.1089 46.091 23.7899 48.772 27.0971 48.772Z" stroke="#FFB100" stroke-width="3.5" stroke-miterlimit="10" stroke-linecap="round"/>
<path d="M32.4956 65.8811C32.4956 65.8811 32.4956 65.8811 32.4956 65.8811L21.6957 65.8811C21.0863 65.8811 20.5019 65.639 20.0709 65.2081C19.64 64.7772 19.3979 64.1927 19.3979 63.5833L19.3979 56.4699C19.3979 52.2185 22.8443 48.7721 27.0957 48.7721V48.7721C31.347 48.7721 34.7935 52.2185 34.7935 56.4699L34.7935 63.5833C34.7935 64.1927 34.5514 64.7772 34.1204 65.2081C33.6895 65.639 33.105 65.8811 32.4956 65.8811C32.4956 65.8811 32.4956 65.8811 32.4956 65.8811V65.8811Z" stroke="#FFB100" stroke-width="3.5" stroke-miterlimit="10" stroke-linecap="round"/>
</svg>
